<svg xmlns="http://www.w3.org/2000/svg" width="194" height="41.98" viewBox="0 0 194 41.98">
  <g id="Group_16" data-name="Group 16" transform="translate(-135.144 -385.536)" opacity="0.998">
    <g id="Group_10" data-name="Group 10" transform="translate(251.511 386.386)">
      <path id="Path_18" data-name="Path 18" d="M364.5,422.322l-.025,5.351c-2.713-.025-7.428-2.1-10.069-4.13a15.3,15.3,0,0,1-11.168,4.546c-8.92,0-13.466-6.476-13.466-12.293a13.981,13.981,0,0,1,6.647-11.364,16.819,16.819,0,0,1-2.4-7.552c0-4.888,4.521-9.922,10.411-9.922A10.542,10.542,0,0,1,354.7,395.8l-5.987,1.124a4.713,4.713,0,0,0-4.473-4.252,4.238,4.238,0,0,0-4.105,4.423c0,4.57,6.109,12.488,12.537,18.133C358.981,421.4,364.5,422.322,364.5,422.322Zm-15.054-2.591a64.31,64.31,0,0,1-10.093-10.753,7.851,7.851,0,0,0-3.715,6.427c0,3.739,2.517,6.623,7.283,6.623A9.837,9.837,0,0,0,349.446,419.73Z" transform="translate(-329.773 -386.958)" fill="#7c7e84"/>
    </g>
    <g id="Group_12" data-name="Group 12" transform="translate(135.144 385.536)">
      <path id="Path_19" data-name="Path 19" d="M241.323,406.417c0-1.923,0-4.028-.043-5.7h6.066a26.735,26.735,0,0,1,.241,2.882c.77-1.421,2.6-3.407,6.562-3.407,4.543,0,7.5,3.07,7.5,8.755V423.34h-6.264V409.645c0-2.543-.847-4.385-3.611-4.385-2.662,0-4.184,1.479-4.184,5.473V423.34h-6.264Z" transform="translate(-177.822 -391.43)" fill="#7c7e84"/>
      <path id="Path_20" data-name="Path 20" d="M198.488,412.027a12.2,12.2,0,0,1,.879-4.653,11.645,11.645,0,0,1,2.438-3.761,11.1,11.1,0,0,1,3.727-2.513,12.993,12.993,0,0,1,9.539,0,11.223,11.223,0,0,1,3.757,2.513,11.543,11.543,0,0,1,2.451,3.761,12.76,12.76,0,0,1,0,9.307,11.549,11.549,0,0,1-2.451,3.761,11.231,11.231,0,0,1-3.757,2.513,13,13,0,0,1-9.539,0,11.107,11.107,0,0,1-3.727-2.513,11.65,11.65,0,0,1-2.438-3.761A12.2,12.2,0,0,1,198.488,412.027Zm5.811,0a6.229,6.229,0,0,0,1.786,4.431,5.98,5.98,0,0,0,6.534,1.293,6.047,6.047,0,0,0,1.928-1.293,6.131,6.131,0,0,0,1.318-1.963,6.554,6.554,0,0,0,0-4.936,6.141,6.141,0,0,0-1.318-1.962,6.047,6.047,0,0,0-1.928-1.293,5.947,5.947,0,0,0-6.534,1.293,6.226,6.226,0,0,0-1.786,4.43Z" transform="translate(-160.615 -391.429)" fill="#7c7e84"/>
      <path id="Path_21" data-name="Path 21" d="M154.314,385.536v11.148a11.383,11.383,0,0,0-2.545-1.479,12.991,12.991,0,0,0-9.538,0,11.214,11.214,0,0,0-3.757,2.513,11.545,11.545,0,0,0-2.452,3.761,12.758,12.758,0,0,0,0,9.307,11.547,11.547,0,0,0,2.452,3.762,11.222,11.222,0,0,0,3.757,2.512,12.992,12.992,0,0,0,9.538,0,11.385,11.385,0,0,0,2.545-1.479v1.855h6.264v-31.9ZM152.521,408.6a6.251,6.251,0,0,1-1.3,1.962,5.98,5.98,0,0,1-6.534,1.294,6.03,6.03,0,0,1-1.927-1.294,6.14,6.14,0,0,1-1.318-1.962,6.561,6.561,0,0,1,0-4.936,6.147,6.147,0,0,1,1.318-1.962,6.038,6.038,0,0,1,1.927-1.293,5.949,5.949,0,0,1,6.534,1.293,6.445,6.445,0,0,1,1.3,6.9Z" transform="translate(-135.144 -385.536)" fill="#7c7e84"/>
      <path id="Path_22" data-name="Path 22" d="M291.472,400.192a12.263,12.263,0,0,0-4.777.907,11.1,11.1,0,0,0-3.728,2.513,11.644,11.644,0,0,0-2.438,3.761,12.76,12.76,0,0,0,0,9.307,11.65,11.65,0,0,0,2.438,3.761,11.11,11.11,0,0,0,3.728,2.513,12.991,12.991,0,0,0,9.538,0,11.231,11.231,0,0,0,3.757-2.513,11.366,11.366,0,0,0,2-2.787l-5.44-2.262a5.966,5.966,0,0,1-2.77,2.357,5.949,5.949,0,0,1-6.534-1.293,6.254,6.254,0,0,1-1.3-1.963,5.836,5.836,0,0,1-.343-1.107h17.125S304.558,400.192,291.472,400.192Zm-4.224,7.4a5.981,5.981,0,0,1,6.534-1.293,6.012,6.012,0,0,1,1.927,1.293,4.754,4.754,0,0,1,1.125,1.939H285.955A6.26,6.26,0,0,1,287.248,407.6Z" transform="translate(-193.251 -391.429)" fill="#7c7e84"/>
      <g id="Group_11" data-name="Group 11" transform="translate(28.941 0.527)">
        <rect id="Rectangle_10" data-name="Rectangle 10" width="6.263" height="22.621" transform="translate(0.012 9.284)" fill="#7c7e84"/>
        <path id="Path_23" data-name="Path 23" d="M186.689,392.7a3.14,3.14,0,1,0-3.14-3.14A3.14,3.14,0,0,0,186.689,392.7Z" transform="translate(-183.549 -386.417)" fill="#7c7e84"/>
      </g>
    </g>
    <g id="Group_15" data-name="Group 15" transform="translate(281.193 394.299)">
      <circle id="Ellipse_1" data-name="Ellipse 1" cx="2.521" cy="2.521" r="2.521" transform="translate(42.909 14.451)" fill="#7c7e84"/>
      <g id="Group_14" data-name="Group 14">
        <path id="Path_24" data-name="Path 24" d="M396.319,415.393a5.957,5.957,0,0,1-2.77,2.357,5.947,5.947,0,0,1-6.534-1.293,6.341,6.341,0,0,1,0-8.861,5.98,5.98,0,0,1,6.534-1.293,5.953,5.953,0,0,1,2.77,2.358l5.441-2.262a11.386,11.386,0,0,0-2-2.787A11.223,11.223,0,0,0,396,401.1a12.992,12.992,0,0,0-9.539,0,11.1,11.1,0,0,0-3.727,2.513,11.656,11.656,0,0,0-2.438,3.761,12.759,12.759,0,0,0,0,9.307,11.661,11.661,0,0,0,2.438,3.761,11.1,11.1,0,0,0,3.727,2.513,12.993,12.993,0,0,0,9.539,0,11.223,11.223,0,0,0,3.757-2.513,11.4,11.4,0,0,0,2-2.787Z" transform="translate(-379.418 -400.192)" fill="#7c7e84"/>
        <g id="Group_13" data-name="Group 13" transform="translate(26.043)">
          <path id="Path_25" data-name="Path 25" d="M422.976,407.421a7.465,7.465,0,0,1,.536-2.842,7.118,7.118,0,0,1,1.489-2.3,6.77,6.77,0,0,1,2.277-1.535,7.931,7.931,0,0,1,5.826,0,6.843,6.843,0,0,1,2.294,1.535,7.042,7.042,0,0,1,1.5,2.3,7.792,7.792,0,0,1,0,5.685,7.045,7.045,0,0,1-1.5,2.3A6.852,6.852,0,0,1,433.1,414.1a7.94,7.94,0,0,1-5.826,0A6.779,6.779,0,0,1,425,412.561a7.121,7.121,0,0,1-1.489-2.3A7.461,7.461,0,0,1,422.976,407.421Zm3.549,0a3.8,3.8,0,0,0,1.091,2.707,3.652,3.652,0,0,0,3.99.79,3.683,3.683,0,0,0,1.177-.79,3.738,3.738,0,0,0,.805-1.2,4.009,4.009,0,0,0,0-3.015,3.742,3.742,0,0,0-.805-1.2,3.682,3.682,0,0,0-1.177-.79,3.631,3.631,0,0,0-3.99.79,3.8,3.8,0,0,0-1.091,2.706Z" transform="translate(-422.976 -400.192)" fill="#7c7e84"/>
          <rect id="Rectangle_11" data-name="Rectangle 11" width="13.311" height="3.421" transform="translate(0.573 16.336)" fill="#7c7e84"/>
        </g>
      </g>
    </g>
  </g>
</svg>
