<svg xmlns="http://www.w3.org/2000/svg" xmlns:xlink="http://www.w3.org/1999/xlink" width="346.81" height="89.572" viewBox="0 0 346.81 89.572">
  <defs>
    <linearGradient id="linear-gradient" x1="0.567" y1="-1.377" x2="0.359" y2="4.437" gradientUnits="objectBoundingBox">
      <stop offset="0" stop-color="#dcd426"/>
      <stop offset="1" stop-color="#77ad34"/>
    </linearGradient>
    <linearGradient id="linear-gradient-2" x1="0.615" y1="-3.848" x2="-0.008" y2="18.341" xlink:href="#linear-gradient"/>
    <linearGradient id="linear-gradient-3" x1="0.56" y1="-0.765" x2="0.39" y2="2.757" xlink:href="#linear-gradient"/>
    <linearGradient id="linear-gradient-4" x1="0.567" y1="-1.612" x2="0.27" y2="7.35" xlink:href="#linear-gradient"/>
    <radialGradient id="radial-gradient" cx="-0.796" cy="0.822" r="1.757" gradientTransform="translate(-0.008) scale(1.016 1)" gradientUnits="objectBoundingBox">
      <stop offset="0" stop-color="#fff"/>
      <stop offset="1" stop-color="#fff" stop-opacity="0"/>
    </radialGradient>
    <radialGradient id="radial-gradient-2" cx="1.157" cy="1.015" r="1.232" gradientTransform="translate(-0.013) scale(1.026 1)" gradientUnits="objectBoundingBox">
      <stop offset="0" stop-color="#040506"/>
      <stop offset="0.791" stop-color="#040506" stop-opacity="0.686"/>
      <stop offset="1" stop-color="#040506" stop-opacity="0"/>
    </radialGradient>
    <linearGradient id="linear-gradient-5" x1="0.503" y1="-0.291" x2="0.498" y2="0.827" xlink:href="#linear-gradient"/>
  </defs>
  <g id="Group_5" data-name="Group 5" transform="translate(-134.17 -524.533)">
    <g id="Group_3" data-name="Group 3">
      <g id="Group_1" data-name="Group 1">
        <path id="Path_1" data-name="Path 1" d="M176.38,538.6a57.546,57.546,0,0,0-5.659,6.953,45.119,45.119,0,0,0-4.79-3.332,44.348,44.348,0,0,0-7.106-3.47,43.221,43.221,0,0,0-10.1-2.569l0,0a44.325,44.325,0,0,1,10.03-6.964,52.375,52.375,0,0,1,10.437,4.524c.811.452,1.609.914,2.4,1.423A51.64,51.64,0,0,1,176.38,538.6Z" fill="url(#linear-gradient)"/>
        <path id="Path_2" data-name="Path 2" d="M192.624,526.5c-.385.2-.768.393-1.146.594-1.1.586-2.183,1.2-3.233,1.851l-.03.019c-1.53-1.347-3.129-2.637-4.78-3.842l-.012-.009a.2.2,0,0,0-.019-.012h0c.218-.139.441-.292.658-.417.347.033.695.081,1.031.125,1.074.138,2.128.32,3.173.542.115.022.229.047.344.074h.012c1.2.254,2.372.567,3.529.925C192.314,526.4,192.464,526.441,192.624,526.5Z" fill="url(#linear-gradient-2)"/>
        <path id="Path_3" data-name="Path 3" d="M208.306,535.294a43.523,43.523,0,0,0-8.518,3.021c-.67.3-1.331.637-1.989,1-1.145.6-2.257,1.282-3.333,1.99a43.191,43.191,0,0,0-4.941,3.725,45.819,45.819,0,0,0-3.575,3.471,45.253,45.253,0,0,0-5.635,7.589v0a44.492,44.492,0,0,0-5.82-7.151c.2-.294.4-.584.6-.873a53.786,53.786,0,0,1,5.06-6.152c1.144-1.191,2.336-2.337,3.586-3.424a52.788,52.788,0,0,1,4.929-3.831c.464-.313.925-.624,1.4-.914.625-.416,1.273-.823,1.933-1.18a50.545,50.545,0,0,1,7.059-3.449c.751.371,1.492.774,2.221,1.192a45.031,45.031,0,0,1,5.727,3.9c.439.346.867.715,1.3,1.085Z" fill="url(#linear-gradient-3)"/>
        <path id="Path_4" data-name="Path 4" d="M184.9,531.188a.087.087,0,0,0-.022.015c-.548.386-1.1.787-1.621,1.187q-1.7,1.3-3.276,2.733l-.011.01c-1.168-.961-2.394-1.9-3.644-2.766-.383-.266-.764-.531-1.158-.775a57.4,57.4,0,0,0-9.592-5.138l0,0h.008a41.816,41.816,0,0,1,4.858-1.234c.868-.174,1.759-.313,2.65-.43.823-.115,1.643-.2,2.465-.254l0,0,.01.006c1.544.911,3.055,1.88,4.511,2.908A59.808,59.808,0,0,1,184.9,531.188Z" fill="url(#linear-gradient-4)"/>
      </g>
      <path id="Path_5" data-name="Path 5" d="M135.516,558.306h0Z" opacity="0.5" fill="url(#radial-gradient)" style="mix-blend-mode: soft-light;isolation: isolate"/>
      <path id="Path_6" data-name="Path 6" d="M151.076,561.49" fill="#fff"/>
      <path id="Path_7" data-name="Path 7" d="M213.5,540.567h0Z" opacity="0.5" fill="url(#radial-gradient-2)" style="mix-blend-mode: soft-light;isolation: isolate"/>
      <path id="Path_8" data-name="Path 8" d="M159.007,539.785" fill="#fff"/>
      <g id="Group_2" data-name="Group 2">
        <path id="Path_9" data-name="Path 9" d="M218.835,548.6h-.006a44.429,44.429,0,0,0-5.325-8.03v0h-.011a44.227,44.227,0,0,0-9.343,2.36,44.935,44.935,0,0,0-22.12,17.822c.021.042.041.083.061.126s.041.087.062.13q.183.378.358.76.357.773.683,1.559a51.169,51.169,0,0,1,2.7,8.336l0-.006h0q.1-.246.2-.489a36.473,36.473,0,0,1,19.771-19.819q1.464-.606,2.993-1.087c.34-.105.681-.208,1.026-.3.075.12.148.24.221.361s.156.255.232.384c.088.148.177.3.263.448.077.134.153.27.229.405s.151.27.225.407c.123.227.245.455.362.686h0l.139.277q.21.417.409.838h0a36.441,36.441,0,0,1-6.419,40.405c-.079.084-.159.168-.239.251l-.119.124c-.087.09-.174.179-.262.267q-.312.32-.632.63a22.872,22.872,0,0,1-18.933.951,1.222,1.222,0,0,1-.081.276c-.036-.115-.068-.23-.1-.346a33.538,33.538,0,0,1-5.2-2.476q.357-1.467.625-2.97c.028-.227.065-.445.115-.67v0c.007-.108.033-.221.042-.333.032-.225.075-.448.109-.676v0c.005-.11.031-.223.034-.336a43.469,43.469,0,0,0,.383-5.863,44.817,44.817,0,0,0-2.14-13.748c-.2-.622-.411-1.233-.624-1.841-.2-.518-.4-1.032-.616-1.545-.093-.237-.19-.472-.294-.71-.021-.051-.044-.1-.065-.151s-.044-.1-.067-.152l-.007-.011c-.078-.159-.142-.322-.226-.484q-.342-.747-.712-1.483c-.41-.814-.837-1.617-1.3-2.4-.161-.282-.328-.559-.488-.836-.005-.01-.011-.019-.017-.029l-.026-.043-.005-.008-.013-.024a.105.105,0,0,1-.015-.024l-.008-.009h0l-.027-.044,0-.005-.023-.037-.009-.013c-.168-.261-.331-.524-.505-.788a45.1,45.1,0,0,0-18.6-16.23c-.216-.1-.452-.208-.684-.312-.335-.155-.688-.3-1.035-.45-.123-.052-.246-.1-.37-.152-.089-.04-.183-.08-.29-.118l-.06-.027-.058-.023-.02-.009-.014-.006-.019-.007-.037-.014-.013-.006-.012-.005h0l-.086-.035-.005,0-.029-.01-.122-.045c-.171-.066-.332-.13-.51-.2l-.194-.073-.014,0-.154-.057-.05-.018-.116-.042-.05-.018-.006,0-.02-.006a.234.234,0,0,0-.035-.011l-.134-.046c-.107-.037-.208-.074-.314-.108-.072-.028-.158-.055-.238-.081-.021-.008-.042-.017-.063-.024a.046.046,0,0,0-.021-.008l-.03-.01-.013-.005-.017-.005-.006,0-.042-.015-.1-.035H150.5c-.025-.007-.047-.015-.07-.023l-.013,0h0l-.012,0-.016,0-.008,0c-.038-.012-.078-.024-.118-.034-.121-.041-.242-.079-.363-.117l-.1-.034-.052-.017-.082-.026a.49.49,0,0,0-.048-.013l-.121-.037-.057-.018-.026-.008-.007,0-.038-.013-.033-.008h-.007l-.027-.009h0l-.043-.012a.369.369,0,0,1-.051-.015l-.047-.014-.274-.079-.079-.02-.051-.018-.008,0-.039-.011-.012-.005-.073-.019a.036.036,0,0,0-.015,0c-.013,0-.026-.006-.04-.009l-.033-.011-.02-.006-.021-.006h0a.945.945,0,0,0-.094-.026.461.461,0,0,0-.049-.014l-.079-.021h0l-.032-.009-.1-.028c-.016-.005-.03-.008-.044-.011l-.061-.014c-.116-.031-.232-.062-.349-.09l-.255-.067-.035-.009-.013,0-.052-.013-.035-.009a.323.323,0,0,0-.05-.011l-.025-.006c-.032-.008-.064-.017-.1-.023l-.1-.025-.165-.039-.044-.009-.051-.012-.064-.013a.541.541,0,0,0-.054-.015l-.213-.048-.116-.025-.062-.015h0c-.021,0-.041-.008-.06-.01l-.007,0h0l-.1-.022c-.1-.023-.191-.043-.284-.062-.145.145-.268.292-.408.44q-.591.663-1.15,1.353c-.089.109-.178.218-.267.329s-.192.239-.286.359q-.271.351-.54.708c-.119.158-.235.316-.352.476v0c-.119.158-.238.316-.355.474-.232.326-.448.652-.678.98-.1.164-.214.328-.328.5-.138.214-.275.43-.409.649-.048.074-.094.148-.139.223q-.355.572-.7,1.156c-.384.658-.747,1.332-1.1,2.014a45.632,45.632,0,0,0-2.594,6.17q-.248.739-.47,1.489c-.06.206-.12.411-.178.616-.115.414-.226.83-.328,1.248-.029.109-.056.218-.083.328a45.423,45.423,0,0,0-.928,5.043,43.54,43.54,0,0,0-.322,4.516c0,.118-.005.235-.005.353,0,.236,0,.471,0,.708a44.7,44.7,0,0,0,9.7,27.873q.246.31.5.618c.252.3.507.607.768.907.172.2.347.4.523.593q.794.882,1.634,1.723,1.4,1.4,2.917,2.673.759.637,1.545,1.239h0c.209.16.421.32.633.477h0q.476.354.964.7h0c.325.227.653.451.985.668h0q.746.494,1.512.955c.256.156.512.307.771.457h0a44.7,44.7,0,0,0,4,2.05q.669.3,1.349.579h0q.512.21,1.028.406l.346.131c.117.043.233.086.351.127l.211.076c.093.034.185.066.278.1s.184.065.278.1c.188.065.375.126.564.188h.005c.186.061.374.12.56.179h.007c.187.058.375.116.564.172h0l.092.026c.109.034.22.066.33.1l.151.043h.006c.189.054.381.107.571.157q1.158.311,2.341.556c.27.06.542.115.815.17s.547.105.822.154c.018,0,.036,0,.055.009l.09.016c.11.019.222.036.332.054l.314.051.106.017h.009c.1.016.2.03.3.044l.127.019h.005c.425.061.854.117,1.286.164.289.034.578.063.867.089.142.015.285.027.429.038h.006c.144.014.285.024.429.035h.007c.143.012.287.021.43.031h.007l.432.026h.006c.565.031,1.13.052,1.7.062h.013c.187,0,.377,0,.565.007h.2c.467,0,.936-.008,1.4-.022v0l0,0c1.234-.038,2.461-.13,3.669-.267.2-.022.4-.047.6-.072l.592-.08a44.665,44.665,0,0,0,6.52-1.412c.194-.056.385-.115.577-.175q1.143-.357,2.258-.773a44.679,44.679,0,0,0,10.442-5.542h.02q1.65-1.2,3.211-2.534A44.927,44.927,0,0,0,218.835,548.6Zm-36.957,56.938c-.625.05-1.267.086-1.915.1h-.012c-.313.013-.624.013-.937.013-1.261,0-2.511-.072-3.748-.187q-.285-.03-.568-.063-1.329-.159-2.623-.409c-.346-.066-.688-.138-1.029-.215s-.683-.158-1.022-.244a36.1,36.1,0,0,1-3.479-1.072,36.412,36.412,0,0,1-18.1-53.962v0c.15-.239.308-.474.476-.709.119.04.237.087.356.129a34.517,34.517,0,0,1,3.282,1.432,36.4,36.4,0,0,1,20.29,32.645,36.782,36.782,0,0,1-.411,5.456c-10.986-9.423-19.11-22.974-21.359-26.939l-.006-.01-.006-.011v.363a44.8,44.8,0,0,0,18.482,36.276q.858.625,1.744,1.21h0a44.446,44.446,0,0,0,5.566,3.128q.49.227.98.441h0c.327.143.654.282.985.415,1.155.475,2.315.905,3.5,1.285q.539.172,1.089.329c.366.1.735.2,1.109.3C183.661,605.369,182.769,605.46,181.878,605.537Zm-32.963-56.754h-.626l.153.71c.15-.239.308-.474.476-.709Z" fill="url(#linear-gradient-5)"/>
        <path id="Path_10" data-name="Path 10" d="M182.337,604.6" fill="#fff"/>
      </g>
    </g>
    <g id="Group_4" data-name="Group 4">
      <path id="Path_11" data-name="Path 11" d="M230.521,589.81,255.283,532h6.47L286.6,589.81h-6.3l-8.369-19.5H245.015l-8.454,19.5Zm16.651-24.676h22.519l-11.129-26.571Z" fill="#28303f"/>
      <path id="Path_12" data-name="Path 12" d="M328.963,547.017v37.616a29.8,29.8,0,0,1-.691,7.42,16.28,16.28,0,0,1-3.364,6.47,21.453,21.453,0,0,1-7.765,5.91,23.5,23.5,0,0,1-10.008,2.2A21.439,21.439,0,0,1,286,590.932h5.695a29.243,29.243,0,0,0,4.4,6.3q4.314,4.485,11.476,4.487a15.6,15.6,0,0,0,11.389-4.4,15.04,15.04,0,0,0,4.485-11.215v-4.746a14.675,14.675,0,0,1-6.471,6.9,20.309,20.309,0,0,1-10.18,2.587,22.386,22.386,0,0,1-22.345-22.258,22.1,22.1,0,0,1,6.471-15.919,20.755,20.755,0,0,1,15.443-6.687q11.044,0,17.082,8.8v-7.765Zm-22.6,3.882A15.507,15.507,0,0,0,294.8,555.9a16.755,16.755,0,0,0-4.831,12.078,17.961,17.961,0,0,0,4.831,12.812,15.8,15.8,0,0,0,11.992,5.134,15.58,15.58,0,0,0,11.776-5.178,17.579,17.579,0,0,0,4.875-12.509,16.854,16.854,0,0,0-5-12.252A16.322,16.322,0,0,0,306.359,550.9Z" fill="#28303f"/>
      <path id="Path_13" data-name="Path 13" d="M336.21,589.81V547.017h5.521v6.125q3.02-6.728,12.423-7.161v5.782a13.8,13.8,0,0,0-7.764,2.933q-4.4,3.624-4.4,10.18V589.81Z" fill="#28303f"/>
      <path id="Path_14" data-name="Path 14" d="M374,545.981a22.432,22.432,0,1,1-15.831,38.264,22.035,22.035,0,0,1-6.514-16.09,21.231,21.231,0,0,1,6.644-15.574A21.535,21.535,0,0,1,374,545.981Zm.088,4.918a16.058,16.058,0,0,0-11.907,5.134,16.993,16.993,0,0,0-5.005,12.295,17.314,17.314,0,0,0,4.919,12.51,16.041,16.041,0,0,0,11.993,5.09,15.707,15.707,0,0,0,11.9-5.134,17.747,17.747,0,0,0,4.831-12.639A17.229,17.229,0,0,0,374.084,550.9Z" fill="#28303f"/>
      <path id="Path_15" data-name="Path 15" d="M397.378,577.215h5.781a9.589,9.589,0,0,0,2.372,6.339,7.722,7.722,0,0,0,13.244-5.3q0-5.349-8.455-8.2-5.784-1.986-8.11-4.055a9.907,9.907,0,0,1-3.28-7.766,12.228,12.228,0,0,1,12.252-12.251,11.857,11.857,0,0,1,11.992,11.648h-5.866a7.434,7.434,0,0,0-1.942-4.875,5.885,5.885,0,0,0-4.443-1.855,6.257,6.257,0,0,0-4.487,1.942,6.049,6.049,0,0,0-1.984,4.444,5.838,5.838,0,0,0,2.589,4.916,21.108,21.108,0,0,0,5,2.243q6.642,2.246,9.448,5.092a10.233,10.233,0,0,1,2.8,7.505,13.652,13.652,0,0,1-3.752,9.965,14.141,14.141,0,0,1-19.327.044A13.676,13.676,0,0,1,397.378,577.215Z" fill="#28303f"/>
      <path id="Path_16" data-name="Path 16" d="M448.453,545.981a22.432,22.432,0,1,1-15.831,38.264,22.032,22.032,0,0,1-6.515-16.09,21.232,21.232,0,0,1,6.644-15.574A21.537,21.537,0,0,1,448.453,545.981Zm.087,4.918a16.059,16.059,0,0,0-11.907,5.134,16.992,16.992,0,0,0-5,12.295,17.309,17.309,0,0,0,4.919,12.51,16.039,16.039,0,0,0,11.992,5.09,15.707,15.707,0,0,0,11.9-5.134,17.747,17.747,0,0,0,4.831-12.639A17.227,17.227,0,0,0,448.54,550.9Z" fill="#28303f"/>
      <path id="Path_17" data-name="Path 17" d="M475.458,589.81V532h5.522V589.81Z" fill="#28303f"/>
    </g>
  </g>
</svg>
