<svg id="Group_38" data-name="Group 38" xmlns="http://www.w3.org/2000/svg" xmlns:xlink="http://www.w3.org/1999/xlink" width="740.16" height="752.681" viewBox="0 0 740.16 752.681">
  <defs>
    <radialGradient id="radial-gradient" cx="0.8" cy="1.085" r="0.826" gradientTransform="matrix(1, 0, 0, -1, 0, 2.171)" gradientUnits="objectBoundingBox">
      <stop offset="0" stop-color="#f7f7f7"/>
      <stop offset="0.227" stop-color="#c3dea5"/>
      <stop offset="0.681" stop-color="#9ec872"/>
      <stop offset="1" stop-color="#7cb342"/>
    </radialGradient>
    <radialGradient id="radial-gradient-2" cx="0.624" cy="0.483" r="0.411" gradientTransform="matrix(1, 0, 0, -1, 0, 0.965)" gradientUnits="objectBoundingBox">
      <stop offset="0" stop-color="#43a047"/>
      <stop offset="0.202" stop-color="#53aa57"/>
      <stop offset="1" stop-color="#81c784"/>
    </radialGradient>
  </defs>
  <path id="Combined_Shape" data-name="Combined Shape" d="M154.345,207.03a371.576,371.576,0,0,0,50.829,16.919c26.572,6.772,44.044,8.257,47.538,8.5-14.994-38.687-37.9-82.394-72.871-122.315l-59.809-6.171s21.086-15.6,31.424-22.735C113.624,46.808,64.781,17.465,1.79,0,13.329,16.095,97.772,133.636,154.345,207.03Zm-92.37-42.084c.817-5.22,3.307-20.515,6.485-34.274,3.063-13.29,5.329-21.159,6.158-23.949C39.47,58.776,8.686,15.9,0,3.775,4.294,22.4,22.729,95.458,61.975,164.946Zm9.958-34.16c-3.9,16.9-6.735,35.886-6.745,35.945l-1.413-.218a404.107,404.107,0,0,0,32.3,48.516c61.734,78.854,156.7,117.454,179.536,125.891-14.048-11.818-63.981-55.529-115.173-121.178-24.094-30.893-54.8-72.142-83.014-110.572C76.34,112.961,74.4,120.1,71.933,130.786Zm90.744,87.143C217.515,288.088,270.854,333.048,280,340.56c-1.082-10.6-6.507-53.733-26.809-106.646l-.066,1.4c-.054-.005-18.8-.971-48.848-8.626a385.258,385.258,0,0,1-46.522-15.09C159.422,213.752,161.071,215.87,162.678,217.929Z" transform="translate(337.16 752.681) rotate(180)" fill="url(#radial-gradient)"/>
  <path id="Mask" d="M347.026,462.539c90.049,7.182,36.192-95.644,86.276-153.078S340.29,149.2,340.29,149.2s101.4-55.05,101.4-75.414S416.974,0,327.7,0s-45.715,57.534-45.715,57.534-4,134.433-31.153,165.706C235.8,240.556-184.4,574.39,96.509,608.882S256.976,455.358,347.026,462.539Z" transform="translate(740.16 455.631) rotate(138)" fill="url(#radial-gradient-2)"/>
</svg>
