<svg xmlns="http://www.w3.org/2000/svg" xmlns:xlink="http://www.w3.org/1999/xlink" width="740.16" height="752.681" viewBox="0 0 740.16 752.681">
  <defs>
    <radialGradient id="radial-gradient" cx="0.8" cy="-0.085" r="0.826" gradientUnits="objectBoundingBox">
      <stop offset="0" stop-color="#f7f7f7"/>
      <stop offset="0.227" stop-color="#c3dea5"/>
      <stop offset="0.681" stop-color="#9ec872"/>
      <stop offset="1" stop-color="#7cb342"/>
    </radialGradient>
    <radialGradient id="radial-gradient-2" cx="0.624" cy="0.517" r="0.411" gradientUnits="objectBoundingBox">
      <stop offset="0" stop-color="#43a047"/>
      <stop offset="0.202" stop-color="#53aa57"/>
      <stop offset="1" stop-color="#81c784"/>
    </radialGradient>
  </defs>
  <g id="Group_39" data-name="Group 39" transform="translate(432 -2197.659)">
    <path id="Combined_Shape" data-name="Combined Shape" d="M154.345,133.891a371.576,371.576,0,0,1,50.829-16.919c26.572-6.772,44.044-8.257,47.538-8.5-14.994,38.687-37.9,82.394-72.871,122.315l-59.809,6.171s21.086,15.6,31.424,22.735c-37.832,34.417-86.675,63.76-149.666,81.225C13.329,324.826,97.772,207.284,154.345,133.891Zm-92.37,42.084c.817,5.22,3.307,20.515,6.485,34.274,3.063,13.29,5.329,21.159,6.158,23.949C39.47,282.145,8.686,325.024,0,337.146,4.294,318.521,22.729,245.462,61.975,175.975Zm9.958,34.16c-3.9-16.9-6.735-35.886-6.745-35.945l-1.413.218a404.107,404.107,0,0,1,32.3-48.516C157.811,47.037,252.779,8.438,275.612,0c-14.048,11.818-63.981,55.529-115.173,121.178-24.094,30.893-54.8,72.142-83.014,110.572C76.34,227.96,74.4,220.822,71.933,210.135Zm90.744-87.143C217.515,52.833,270.854,7.873,280,.361c-1.082,10.6-6.507,53.733-26.809,106.646l-.066-1.4c-.054.005-18.8.971-48.848,8.626a385.255,385.255,0,0,0-46.522,15.09C159.422,127.169,161.071,125.051,162.678,122.992Z" transform="translate(-29 2609.42)" fill="url(#radial-gradient)"/>
    <path id="Mask" d="M347.026,150.572c90.049-7.182,36.192,95.644,86.276,153.078S340.29,463.914,340.29,463.914s101.4,55.05,101.4,75.414S416.974,613.112,327.7,613.112s-45.715-57.534-45.715-57.534-4-134.434-31.153-165.706C235.8,372.555-184.4,38.722,96.509,4.23S256.976,157.754,347.026,150.572Z" transform="translate(-21.748 2197.659) rotate(42)" fill="url(#radial-gradient-2)"/>
  </g>
</svg>
